<svg xmlns="http://www.w3.org/2000/svg" viewBox="0 0 64 64" role="img" aria-label="Python icon">
  <path d="M31.5 7c-10 0-12 4.2-12 8.5v5.2h12.9v3.6H14c-4.2 0-7 3.5-7 9.7 0 6.5 3.4 10 7.6 10h4.7v-6.5c0-4.9 4.1-9.1 9.1-9.1h12.1c3.5 0 6.4-2.9 6.4-6.4v-6.5C46.9 11 43.1 7 31.5 7Z" fill="#3776ab"/>
  <circle cx="25" cy="15" r="2.2" fill="#fff"/>
  <path d="M32.5 57c10 0 12-4.2 12-8.5v-5.2H31.6v-3.6H50c4.2 0 7-3.5 7-9.7 0-6.5-3.4-10-7.6-10h-4.7v6.5c0 4.9-4.1 9.1-9.1 9.1H23.5c-3.5 0-6.4 2.9-6.4 6.4v6.5C17.1 53 20.9 57 32.5 57Z" fill="#ffd43b"/>
  <circle cx="39" cy="49" r="2.2" fill="#fff"/>
</svg>
